<?xml version="1.0" encoding="utf-8"?>
<!-- Generator: Adobe Illustrator 21.1.0, SVG Export Plug-In . SVG Version: 6.00 Build 0)  -->
<svg version="1.1" id="Layer_1" xmlns="http://www.w3.org/2000/svg" xmlns:xlink="http://www.w3.org/1999/xlink" x="0px" y="0px"
	 viewBox="0 0 16 16" style="enable-background:new 0 0 16 16;" xml:space="preserve">
<style type="text/css">
	.st0{fill:#E74E29;}
</style>
<title>data-breach</title>
<desc>Created with Sketch.</desc>
<path class="st0" d="M4.8,3.4L3.3,2.1C2.2,3.3,1.6,4.9,1.6,6.6h2C3.6,5.4,4,4.3,4.8,3.4z M14.4,9V6.6C14.4,2.9,11.5,0,8,0
	C7.5,0,7.1,0,6.7,0.1l0.4,2C7.4,2,7.7,2,8,2c2.4,0,4.4,2,4.4,4.6V9H1v7h14V9H14.4z M8,14c-0.8,0-1.5-0.7-1.5-1.5S7.2,11,8,11
	s1.5,0.7,1.5,1.5S8.8,14,8,14z"/>
</svg>
