<?xml version="1.0" encoding="utf-8"?>
<!-- Generator: Adobe Illustrator 21.1.0, SVG Export Plug-In . SVG Version: 6.00 Build 0)  -->
<svg version="1.1" id="Layer_1" xmlns="http://www.w3.org/2000/svg" xmlns:xlink="http://www.w3.org/1999/xlink" x="0px" y="0px"
	 viewBox="0 0 16 16" style="enable-background:new 0 0 16 16;" xml:space="preserve">
<style type="text/css">
	.st0{fill:#E74E29;}
</style>
<title>investigator-named</title>
<desc>Created with Sketch.</desc>
<path class="st0" d="M15.7,14.3l-4.2-4.2c0.8-1.1,1.2-2.3,1.2-3.7C12.8,2.9,9.9,0,6.4,0C2.9,0,0,2.9,0,6.4c0,3.5,2.9,6.4,6.4,6.4
	c1.4,0,2.7-0.5,3.7-1.2l4.2,4.2c0.2,0.2,0.5,0.3,0.7,0.3s0.5-0.1,0.7-0.3C16.1,15.3,16.1,14.7,15.7,14.3z M2,6.4C2,4,4,2,6.4,2
	c2.4,0,4.4,2,4.4,4.4c0,1-0.3,1.9-0.9,2.6c-0.2,0-0.4,0.1-0.6,0.3S9.1,9.6,9,9.9c-0.7,0.6-1.6,0.9-2.6,0.9C4,10.8,2,8.8,2,6.4z"/>
</svg>
