<?xml version="1.0" encoding="utf-8"?>
<!-- Generator: Adobe Illustrator 21.1.0, SVG Export Plug-In . SVG Version: 6.00 Build 0)  -->
<svg version="1.1" id="Layer_1" xmlns="http://www.w3.org/2000/svg" xmlns:xlink="http://www.w3.org/1999/xlink" x="0px" y="0px"
	 viewBox="0 0 16 16" style="enable-background:new 0 0 16 16;" xml:space="preserve">
<style type="text/css">
	.st0{fill:#E74E29;}
</style>
<title>tapes</title>
<desc>Created with Sketch.</desc>
<path class="st0" d="M11.6,4.6c0.8,0,1.5,0.7,1.5,1.5s-0.7,1.5-1.5,1.5s-1.5-0.7-1.5-1.5S10.8,4.6,11.6,4.6z M4.7,4.6
	c0.8,0,1.5,0.7,1.5,1.5S5.5,7.6,4.7,7.6S3.2,6.9,3.2,6.1S3.9,4.6,4.7,4.6z M14.6,1.3H1.3C0.6,1.3,0,1.9,0,2.7v9
	C0,12.4,0.6,13,1.3,13h13.3c0.7,0,1.3-0.6,1.3-1.3v-9C16,1.9,15.4,1.3,14.6,1.3z M14.6,11.7h-2.3l-1.7-2.1H5.3l-1.7,2.1H1.3v-9h13.3
	V11.7z"/>
</svg>
